<svg xmlns="http://www.w3.org/2000/svg" width="30.655" height="30.655" viewBox="0 0 30.655 30.655">
  <path id="customers_icon" data-name="customers icon" d="M6.109,31.655H26.546V29.1h5.109V21.436A8.316,8.316,0,0,0,25.8,13.5,5.743,5.743,0,0,0,22.714,2.916a5.686,5.686,0,0,0-1.616.238,6.358,6.358,0,0,0-9.54,0,5.686,5.686,0,0,0-1.616-.238A5.743,5.743,0,0,0,6.853,13.5,8.316,8.316,0,0,0,1,21.436V29.1H6.109Zm19.159-1.277H7.386V20.8c0-.213.013-.424.032-.633.006-.068.015-.136.022-.2.017-.144.04-.287.066-.428.013-.072.024-.144.04-.215.04-.183.086-.363.139-.542.027-.088.059-.174.089-.261q.1-.3.229-.582c.041-.091.086-.181.13-.27q.1-.2.207-.384c.064-.109.128-.218.2-.324.054-.082.111-.161.168-.241s.122-.167.186-.248.118-.149.179-.221c.08-.094.164-.185.249-.274a7.246,7.246,0,0,1,.553-.528c.07-.059.143-.116.216-.173s.168-.129.255-.19.161-.114.245-.169.171-.105.257-.156q.244-.145.5-.27c.086-.042.171-.086.259-.125l.1-.046a6.992,6.992,0,0,1,2.7-.542h3.832a6.975,6.975,0,0,1,2.7.542l.1.046c.088.038.173.083.259.125q.258.125.5.27c.087.051.174.1.257.156q.257.169.5.359c.073.057.146.114.216.173a6.89,6.89,0,0,1,.553.528c.085.089.169.18.249.274q.192.227.365.469c.057.08.115.158.168.241a7.4,7.4,0,0,1,.4.708c.045.089.089.179.13.27q.128.286.229.582c.03.087.062.173.089.261q.08.266.139.542c.015.071.027.143.04.215a7.271,7.271,0,0,1,.121,1.265Zm5.109-8.941v6.386H26.546V20.8a8.329,8.329,0,0,0-.05-.9c-.008-.07-.022-.137-.031-.206q-.044-.34-.115-.676c-.016-.073-.038-.143-.056-.215q-.079-.324-.183-.64c-.024-.071-.051-.14-.077-.209q-.112-.308-.248-.607-.048-.1-.1-.207a8.063,8.063,0,0,0-.8-1.3c-.047-.063-.091-.126-.14-.187q-.211-.264-.443-.511c-.043-.047-.084-.1-.128-.141a8.265,8.265,0,0,0-.635-.589A7.033,7.033,0,0,1,30.377,21.436ZM21.9,4.27a4.371,4.371,0,0,1,.816-.077A4.47,4.47,0,1,1,20.27,12.4c.01-.007.017-.016.026-.024a6.414,6.414,0,0,0,1.4-1.557l.035-.057q.166-.264.305-.545l.044-.092q.127-.265.229-.544l.042-.115q.093-.269.161-.545c.011-.046.025-.091.035-.137.041-.181.072-.365.1-.551.007-.049.017-.1.022-.148a6.056,6.056,0,0,0,.042-.7,6.389,6.389,0,0,0-.047-.746c-.009-.078-.024-.155-.036-.232a6.646,6.646,0,0,0-.16-.748q-.077-.275-.18-.542c-.019-.049-.034-.1-.054-.148a6.35,6.35,0,0,0-.331-.687A.075.075,0,0,1,21.9,4.27Zm-1.635-.138.039.05c.031.039.059.08.089.119a5.12,5.12,0,0,1,.75,1.388c.011.032.024.063.035.1a5.068,5.068,0,0,1,.176.7c.009.05.016.1.023.151a5.178,5.178,0,0,1,.061.747,5.019,5.019,0,0,1-.042.621c-.006.048-.015.1-.022.143a5.036,5.036,0,0,1-.1.5c-.009.034-.017.07-.027.1a5.128,5.128,0,0,1-.492,1.174l-.011.019a5.048,5.048,0,0,1-.342.511l-.034.045a5.121,5.121,0,0,1-.9.907l-.061.045a5.146,5.146,0,0,1-.495.332c-.031.018-.059.038-.091.055l-.073.042a5.094,5.094,0,0,1-4.831,0l-.073-.042c-.031-.017-.06-.037-.091-.055a5.145,5.145,0,0,1-.495-.332l-.061-.045a5.164,5.164,0,0,1-.9-.907l-.034-.045a5.156,5.156,0,0,1-.342-.511L11.9,9.929a5.119,5.119,0,0,1-.493-1.174c-.01-.034-.018-.069-.027-.1a5.086,5.086,0,0,1-.1-.5c-.007-.048-.016-.095-.022-.143a5.018,5.018,0,0,1-.042-.621,5.162,5.162,0,0,1,.061-.746c.008-.05.014-.1.023-.151a5.092,5.092,0,0,1,.176-.7c.011-.033.024-.064.035-.1a5.11,5.11,0,0,1,.75-1.388c.03-.04.058-.081.089-.119l.039-.05a5.1,5.1,0,0,1,7.872,0ZM5.47,8.664a4.476,4.476,0,0,1,4.47-4.47,4.371,4.371,0,0,1,.816.077l-.006.012a6.4,6.4,0,0,0-.331.686c-.02.049-.036.1-.055.149a6.255,6.255,0,0,0-.242.783c-.04.167-.072.336-.1.507-.012.077-.026.154-.036.232a5.981,5.981,0,0,0-.006,1.448c.006.05.016.1.022.147.025.186.056.371.1.552.01.046.024.091.035.136.046.185.1.368.161.547.013.039.028.077.042.116q.1.278.229.543l.045.093q.14.281.305.545l.035.057a6.439,6.439,0,0,0,1.4,1.557l.026.024A4.467,4.467,0,0,1,5.47,8.664ZM2.277,27.823V21.436a7.034,7.034,0,0,1,6.834-7.022A8.4,8.4,0,0,0,8.477,15c-.045.045-.085.095-.128.141q-.232.247-.443.512c-.048.061-.093.124-.139.186a8.151,8.151,0,0,0-.489.73q-.165.277-.307.566c-.034.069-.068.137-.1.207-.091.2-.173.4-.248.607-.026.07-.053.139-.077.209-.07.21-.13.424-.184.641-.018.072-.039.142-.055.214q-.071.336-.115.678c-.01.069-.024.136-.031.206a8.308,8.308,0,0,0-.05.9v7.025Z" transform="translate(-1 -1)" fill="#fff"/>
</svg>
